 <svg  version="1.0" xmlns="http://www.w3.org/2000/svg"  width="300.000000pt" height="300.000000pt" viewBox="0 0 300.000000 300.000000"  preserveAspectRatio="xMidYMid meet">  <g transform="translate(0.000000,300.000000) scale(0.100000,-0.100000)" fill="#ffffff" stroke="none"> <path d="M1540 1831 c10 -21 3 -104 -12 -133 -5 -11 -5 -18 1 -18 16 0 19 10 26 93 6 68 5 77 -9 77 -13 0 -15 -4 -6 -19z"/> <path d="M1780 1831 c-112 -36 -167 -84 -194 -171 -21 -65 -61 -418 -52 -461 9 -49 43 -98 86 -123 28 -17 52 -21 120 -21 143 0 231 45 279 140 19 38 29 92 49 249 31 249 28 283 -31 342 -65 65 -150 80 -257 45z m169 -31 c46 -13 89 -56 101 -101 9 -33 3 -134 -15 -249 -2 -14 -6 -54 -10 -90 -13 -132 -53 -203 -136 -239 -109 -49 -216 -33 -264 37 -33 48 -33 112 -1 334 33 224 53 263 158 299 60 21 117 24 167 9z m-313 -111 c-8 -19 -26 -127 -40 -240 -30 -235 -26 -272 36 -337 24 -25 27 -31 12 -23 -34 17 -72 68 -84 112 -15 54 30 419 60 486 23 52 38 54 16 2z"/> <path d="M1816 1677 c-14 -14 -27 -40 -31 -58 -17 -100 -43 -343 -38 -357 19 -54 65 -67 101 -29 18 19 25 50 42 189 11 92 20 181 20 200 -1 65 -53 96 -94 55z m71 -22 c3 -9 -4 -98 -16 -198 -26 -212 -43 -254 -86 -211 -10 11 -14 26 -10 47 3 18 14 103 24 190 11 87 25 164 31 172 16 20 49 19 57 0z"/> <path d="M1847 1500 c-10 -80 -20 -165 -24 -190 -3 -25 -3 -42 1 -39 8 7 48 327 44 354 -2 11 -11 -45 -21 -125z"/> <path d="M1010 1831 c-23 -6 -26 -15 -36 -86 -7 -44 -8 -84 -4 -89 8 -8 137 -4 170 5 8 2 14 0 13 -6 0 -5 -15 -125 -32 -265 -17 -140 -35 -268 -40 -285 -9 -30 -9 -29 -10 10 0 22 12 145 29 274 17 141 25 241 20 250 -6 12 -10 7 -14 -19 -10 -58 -66 -516 -66 -539 0 -20 4 -21 93 -20 141 2 149 5 154 59 2 25 17 151 33 280 17 129 30 241 30 249 0 10 9 12 38 8 20 -4 54 -4 75 0 42 6 42 8 52 116 l7 67 -244 -1 c-134 -1 -254 -4 -268 -8z m5 -108 c-3 -24 -11 -41 -16 -37 -9 5 -6 48 8 104 l7 25 4 -24 c2 -13 1 -44 -3 -68z m465 42 c0 -49 -29 -75 -83 -75 -72 0 -73 -4 -110 -300 -28 -220 -37 -265 -52 -276 -22 -16 -111 -19 -120 -4 -6 10 -1 63 30 300 8 58 17 137 21 175 7 84 -2 96 -75 105 -45 5 -46 6 -49 43 -6 67 -4 67 229 67 l209 0 0 -35z"/> <path d="M2049 1814 c41 -34 70 -96 71 -149 0 -67 -40 -378 -56 -425 -8 -24 -10 -40 -5 -35 5 6 13 26 19 45 15 45 52 354 52 422 0 66 -31 124 -80 151 l-35 19 34 -28z"/> <path d="M1376 1603 c-3 -15 -17 -127 -31 -248 -15 -121 -31 -231 -36 -244 -10 -23 -5 -40 7 -28 7 7 75 540 69 545 -2 2 -6 -9 -9 -25z"/> </g> </svg> 